<mxfile host="app.diagrams.net" modified="2024-04-15T08:47:53.314Z" agent="Mozilla/5.0 (Windows NT 10.0; Win64; x64) AppleWebKit/537.36 (KHTML, like Gecko) Chrome/123.0.0.0 Safari/537.36" etag="InXmNsiPKHCJJqi0y4W9" version="24.2.3" type="device">
  <diagram name="Side-1" id="DkK2Di8HYiKeLqJ8IuG8">
    <mxGraphModel dx="1434" dy="738" grid="1" gridSize="10" guides="1" tooltips="1" connect="1" arrows="1" fold="1" page="1" pageScale="1" pageWidth="827" pageHeight="1169" math="0" shadow="0">
      <root>
        <mxCell id="0" />
        <mxCell id="1" parent="0" />
        <mxCell id="eEYf0YfA6NWy8jPU72UB-71" value="" style="rounded=0;whiteSpace=wrap;html=1;" vertex="1" parent="1">
          <mxGeometry width="530" height="950" as="geometry" />
        </mxCell>
        <mxCell id="eEYf0YfA6NWy8jPU72UB-1" value="Download&lt;br&gt;Manager" style="rounded=0;whiteSpace=wrap;html=1;fillColor=#f8cecc;strokeColor=#b85450;" vertex="1" parent="1">
          <mxGeometry x="160" y="130" width="120" height="60" as="geometry" />
        </mxCell>
        <mxCell id="eEYf0YfA6NWy8jPU72UB-13" style="edgeStyle=orthogonalEdgeStyle;rounded=0;orthogonalLoop=1;jettySize=auto;html=1;exitX=0.5;exitY=0;exitDx=0;exitDy=0;exitPerimeter=0;entryX=0;entryY=0.5;entryDx=0;entryDy=0;" edge="1" parent="1" source="eEYf0YfA6NWy8jPU72UB-2" target="eEYf0YfA6NWy8jPU72UB-6">
          <mxGeometry relative="1" as="geometry" />
        </mxCell>
        <mxCell id="eEYf0YfA6NWy8jPU72UB-14" value="Already exists?" style="edgeLabel;html=1;align=center;verticalAlign=middle;resizable=0;points=[];" vertex="1" connectable="0" parent="eEYf0YfA6NWy8jPU72UB-13">
          <mxGeometry x="-0.4" relative="1" as="geometry">
            <mxPoint as="offset" />
          </mxGeometry>
        </mxCell>
        <mxCell id="eEYf0YfA6NWy8jPU72UB-54" style="edgeStyle=orthogonalEdgeStyle;rounded=0;orthogonalLoop=1;jettySize=auto;html=1;exitX=0.5;exitY=1;exitDx=0;exitDy=0;exitPerimeter=0;" edge="1" parent="1" source="eEYf0YfA6NWy8jPU72UB-2" target="eEYf0YfA6NWy8jPU72UB-28">
          <mxGeometry relative="1" as="geometry">
            <Array as="points">
              <mxPoint x="120" y="630" />
              <mxPoint x="280" y="630" />
            </Array>
          </mxGeometry>
        </mxCell>
        <mxCell id="eEYf0YfA6NWy8jPU72UB-2" value="PDF-file folder&lt;div&gt;(NAS)&lt;/div&gt;" style="shape=card;whiteSpace=wrap;html=1;fillColor=#f8cecc;strokeColor=#b85450;" vertex="1" parent="1">
          <mxGeometry x="80" y="350" width="80" height="100" as="geometry" />
        </mxCell>
        <mxCell id="eEYf0YfA6NWy8jPU72UB-9" style="edgeStyle=orthogonalEdgeStyle;rounded=0;orthogonalLoop=1;jettySize=auto;html=1;exitX=0.5;exitY=0;exitDx=0;exitDy=0;exitPerimeter=0;entryX=0.5;entryY=1;entryDx=0;entryDy=0;" edge="1" parent="1" source="eEYf0YfA6NWy8jPU72UB-3" target="eEYf0YfA6NWy8jPU72UB-6">
          <mxGeometry relative="1" as="geometry" />
        </mxCell>
        <mxCell id="eEYf0YfA6NWy8jPU72UB-12" value="URL" style="edgeLabel;html=1;align=center;verticalAlign=middle;resizable=0;points=[];" vertex="1" connectable="0" parent="eEYf0YfA6NWy8jPU72UB-9">
          <mxGeometry x="-0.08" y="-1" relative="1" as="geometry">
            <mxPoint as="offset" />
          </mxGeometry>
        </mxCell>
        <mxCell id="eEYf0YfA6NWy8jPU72UB-3" value="&lt;font style=&quot;font-size: 10px;&quot;&gt;GRI_2017_2020&lt;/font&gt;" style="shape=card;whiteSpace=wrap;html=1;fillColor=#f8cecc;strokeColor=#b85450;" vertex="1" parent="1">
          <mxGeometry x="180" y="350" width="80" height="100" as="geometry" />
        </mxCell>
        <mxCell id="eEYf0YfA6NWy8jPU72UB-7" style="edgeStyle=orthogonalEdgeStyle;rounded=0;orthogonalLoop=1;jettySize=auto;html=1;exitX=0.5;exitY=0;exitDx=0;exitDy=0;exitPerimeter=0;entryX=1;entryY=0.5;entryDx=0;entryDy=0;" edge="1" parent="1" source="eEYf0YfA6NWy8jPU72UB-4" target="eEYf0YfA6NWy8jPU72UB-6">
          <mxGeometry relative="1" as="geometry" />
        </mxCell>
        <mxCell id="eEYf0YfA6NWy8jPU72UB-11" value="Downloaded?" style="edgeLabel;html=1;align=center;verticalAlign=middle;resizable=0;points=[];" vertex="1" connectable="0" parent="eEYf0YfA6NWy8jPU72UB-7">
          <mxGeometry x="-0.4133" y="-1" relative="1" as="geometry">
            <mxPoint as="offset" />
          </mxGeometry>
        </mxCell>
        <mxCell id="eEYf0YfA6NWy8jPU72UB-4" value="&lt;span style=&quot;font-size: 10px;&quot;&gt;Metadata2006&lt;/span&gt;&lt;div&gt;&lt;span style=&quot;font-size: 10px;&quot;&gt;_2016&lt;/span&gt;&lt;/div&gt;" style="shape=card;whiteSpace=wrap;html=1;fillColor=#f8cecc;strokeColor=#b85450;" vertex="1" parent="1">
          <mxGeometry x="280" y="350" width="80" height="100" as="geometry" />
        </mxCell>
        <mxCell id="eEYf0YfA6NWy8jPU72UB-18" style="edgeStyle=orthogonalEdgeStyle;rounded=0;orthogonalLoop=1;jettySize=auto;html=1;exitX=0.31;exitY=0.8;exitDx=0;exitDy=0;exitPerimeter=0;entryX=0.25;entryY=0;entryDx=0;entryDy=0;" edge="1" parent="1" source="eEYf0YfA6NWy8jPU72UB-5" target="eEYf0YfA6NWy8jPU72UB-1">
          <mxGeometry relative="1" as="geometry" />
        </mxCell>
        <mxCell id="eEYf0YfA6NWy8jPU72UB-20" value="Pdf-file" style="edgeLabel;html=1;align=center;verticalAlign=middle;resizable=0;points=[];" vertex="1" connectable="0" parent="eEYf0YfA6NWy8jPU72UB-18">
          <mxGeometry x="0.0544" y="2" relative="1" as="geometry">
            <mxPoint as="offset" />
          </mxGeometry>
        </mxCell>
        <mxCell id="eEYf0YfA6NWy8jPU72UB-5" value="Web of pdf-files" style="ellipse;shape=cloud;whiteSpace=wrap;html=1;fillColor=#e1d5e7;strokeColor=#9673a6;" vertex="1" parent="1">
          <mxGeometry x="150" y="10" width="120" height="80" as="geometry" />
        </mxCell>
        <mxCell id="eEYf0YfA6NWy8jPU72UB-15" style="edgeStyle=orthogonalEdgeStyle;rounded=0;orthogonalLoop=1;jettySize=auto;html=1;exitX=0.5;exitY=0;exitDx=0;exitDy=0;entryX=0.5;entryY=1;entryDx=0;entryDy=0;" edge="1" parent="1" source="eEYf0YfA6NWy8jPU72UB-6" target="eEYf0YfA6NWy8jPU72UB-1">
          <mxGeometry relative="1" as="geometry" />
        </mxCell>
        <mxCell id="eEYf0YfA6NWy8jPU72UB-6" value="Checks" style="rhombus;whiteSpace=wrap;html=1;fillColor=#f8cecc;strokeColor=#b85450;" vertex="1" parent="1">
          <mxGeometry x="180" y="220" width="80" height="80" as="geometry" />
        </mxCell>
        <mxCell id="eEYf0YfA6NWy8jPU72UB-17" style="edgeStyle=orthogonalEdgeStyle;rounded=0;orthogonalLoop=1;jettySize=auto;html=1;exitX=0.75;exitY=0;exitDx=0;exitDy=0;entryX=0.8;entryY=0.8;entryDx=0;entryDy=0;entryPerimeter=0;" edge="1" parent="1" source="eEYf0YfA6NWy8jPU72UB-1" target="eEYf0YfA6NWy8jPU72UB-5">
          <mxGeometry relative="1" as="geometry" />
        </mxCell>
        <mxCell id="eEYf0YfA6NWy8jPU72UB-19" value="URL" style="edgeLabel;html=1;align=center;verticalAlign=middle;resizable=0;points=[];" vertex="1" connectable="0" parent="eEYf0YfA6NWy8jPU72UB-17">
          <mxGeometry x="-0.2667" relative="1" as="geometry">
            <mxPoint as="offset" />
          </mxGeometry>
        </mxCell>
        <mxCell id="eEYf0YfA6NWy8jPU72UB-21" style="edgeStyle=orthogonalEdgeStyle;rounded=0;orthogonalLoop=1;jettySize=auto;html=1;exitX=0;exitY=0.5;exitDx=0;exitDy=0;entryX=0;entryY=0;entryDx=0;entryDy=65;entryPerimeter=0;" edge="1" parent="1" source="eEYf0YfA6NWy8jPU72UB-1" target="eEYf0YfA6NWy8jPU72UB-2">
          <mxGeometry relative="1" as="geometry" />
        </mxCell>
        <mxCell id="eEYf0YfA6NWy8jPU72UB-22" value="Pdf-file" style="edgeLabel;html=1;align=center;verticalAlign=middle;resizable=0;points=[];" vertex="1" connectable="0" parent="eEYf0YfA6NWy8jPU72UB-21">
          <mxGeometry x="0.232" y="-1" relative="1" as="geometry">
            <mxPoint as="offset" />
          </mxGeometry>
        </mxCell>
        <mxCell id="eEYf0YfA6NWy8jPU72UB-23" style="edgeStyle=orthogonalEdgeStyle;rounded=0;orthogonalLoop=1;jettySize=auto;html=1;exitX=1;exitY=0.5;exitDx=0;exitDy=0;entryX=1.013;entryY=0.61;entryDx=0;entryDy=0;entryPerimeter=0;" edge="1" parent="1" source="eEYf0YfA6NWy8jPU72UB-1" target="eEYf0YfA6NWy8jPU72UB-4">
          <mxGeometry relative="1" as="geometry" />
        </mxCell>
        <mxCell id="eEYf0YfA6NWy8jPU72UB-24" value="Update list" style="edgeLabel;html=1;align=center;verticalAlign=middle;resizable=0;points=[];" vertex="1" connectable="0" parent="eEYf0YfA6NWy8jPU72UB-23">
          <mxGeometry x="0.2055" y="4" relative="1" as="geometry">
            <mxPoint x="-14" y="-13" as="offset" />
          </mxGeometry>
        </mxCell>
        <mxCell id="eEYf0YfA6NWy8jPU72UB-52" style="edgeStyle=orthogonalEdgeStyle;rounded=0;orthogonalLoop=1;jettySize=auto;html=1;exitX=0.5;exitY=1;exitDx=0;exitDy=0;exitPerimeter=0;entryX=0.5;entryY=0;entryDx=0;entryDy=0;" edge="1" parent="1" source="eEYf0YfA6NWy8jPU72UB-25" target="eEYf0YfA6NWy8jPU72UB-28">
          <mxGeometry relative="1" as="geometry">
            <Array as="points">
              <mxPoint x="325" y="630" />
              <mxPoint x="280" y="630" />
            </Array>
          </mxGeometry>
        </mxCell>
        <mxCell id="eEYf0YfA6NWy8jPU72UB-25" value="BRNummer&lt;div&gt;db&lt;/div&gt;" style="shape=cylinder3;whiteSpace=wrap;html=1;boundedLbl=1;backgroundOutline=1;size=15;fillColor=#dae8fc;strokeColor=#6c8ebf;" vertex="1" parent="1">
          <mxGeometry x="280" y="460" width="90" height="130" as="geometry" />
        </mxCell>
        <mxCell id="eEYf0YfA6NWy8jPU72UB-26" style="edgeStyle=orthogonalEdgeStyle;rounded=0;orthogonalLoop=1;jettySize=auto;html=1;exitX=1;exitY=0.5;exitDx=0;exitDy=0;entryX=0.989;entryY=0.554;entryDx=0;entryDy=0;entryPerimeter=0;" edge="1" parent="1" source="eEYf0YfA6NWy8jPU72UB-1" target="eEYf0YfA6NWy8jPU72UB-25">
          <mxGeometry relative="1" as="geometry">
            <Array as="points">
              <mxPoint x="380" y="160" />
              <mxPoint x="380" y="532" />
            </Array>
          </mxGeometry>
        </mxCell>
        <mxCell id="eEYf0YfA6NWy8jPU72UB-27" value="Users" style="shape=cylinder3;whiteSpace=wrap;html=1;boundedLbl=1;backgroundOutline=1;size=15;fillColor=#dae8fc;strokeColor=#6c8ebf;" vertex="1" parent="1">
          <mxGeometry x="235" y="810" width="90" height="130" as="geometry" />
        </mxCell>
        <mxCell id="eEYf0YfA6NWy8jPU72UB-28" value="API" style="rounded=0;whiteSpace=wrap;html=1;fillColor=#dae8fc;strokeColor=#6c8ebf;" vertex="1" parent="1">
          <mxGeometry x="220" y="680" width="120" height="60" as="geometry" />
        </mxCell>
        <mxCell id="eEYf0YfA6NWy8jPU72UB-50" style="edgeStyle=orthogonalEdgeStyle;rounded=0;orthogonalLoop=1;jettySize=auto;html=1;exitX=0.5;exitY=0.5;exitDx=0;exitDy=0;exitPerimeter=0;entryX=0;entryY=0.5;entryDx=0;entryDy=0;startArrow=classic;startFill=1;" edge="1" parent="1" source="eEYf0YfA6NWy8jPU72UB-29" target="eEYf0YfA6NWy8jPU72UB-36">
          <mxGeometry relative="1" as="geometry" />
        </mxCell>
        <mxCell id="eEYf0YfA6NWy8jPU72UB-56" value="Request" style="edgeLabel;html=1;align=center;verticalAlign=middle;resizable=0;points=[];" vertex="1" connectable="0" parent="eEYf0YfA6NWy8jPU72UB-50">
          <mxGeometry x="-0.6206" y="-3" relative="1" as="geometry">
            <mxPoint y="-3" as="offset" />
          </mxGeometry>
        </mxCell>
        <mxCell id="eEYf0YfA6NWy8jPU72UB-29" value="User" style="shape=umlActor;verticalLabelPosition=bottom;verticalAlign=top;html=1;outlineConnect=0;fillColor=#dae8fc;strokeColor=#6c8ebf;" vertex="1" parent="1">
          <mxGeometry x="40" y="620" width="50" height="95" as="geometry" />
        </mxCell>
        <mxCell id="eEYf0YfA6NWy8jPU72UB-51" style="edgeStyle=orthogonalEdgeStyle;rounded=0;orthogonalLoop=1;jettySize=auto;html=1;exitX=0.5;exitY=0.5;exitDx=0;exitDy=0;exitPerimeter=0;entryX=0;entryY=0.5;entryDx=0;entryDy=0;startArrow=classic;startFill=1;" edge="1" parent="1" source="eEYf0YfA6NWy8jPU72UB-33" target="eEYf0YfA6NWy8jPU72UB-36">
          <mxGeometry relative="1" as="geometry" />
        </mxCell>
        <mxCell id="eEYf0YfA6NWy8jPU72UB-55" value="Request" style="edgeLabel;html=1;align=center;verticalAlign=middle;resizable=0;points=[];" vertex="1" connectable="0" parent="eEYf0YfA6NWy8jPU72UB-51">
          <mxGeometry x="-0.5859" y="-2" relative="1" as="geometry">
            <mxPoint x="-79" y="46" as="offset" />
          </mxGeometry>
        </mxCell>
        <mxCell id="eEYf0YfA6NWy8jPU72UB-33" value="Admin" style="shape=umlActor;verticalLabelPosition=bottom;verticalAlign=top;html=1;outlineConnect=0;fillColor=#dae8fc;strokeColor=#6c8ebf;" vertex="1" parent="1">
          <mxGeometry x="40" y="765" width="50" height="95" as="geometry" />
        </mxCell>
        <mxCell id="eEYf0YfA6NWy8jPU72UB-57" style="edgeStyle=orthogonalEdgeStyle;rounded=0;orthogonalLoop=1;jettySize=auto;html=1;exitX=0;exitY=0.5;exitDx=0;exitDy=0;entryX=1;entryY=0.5;entryDx=0;entryDy=0;" edge="1" parent="1" source="eEYf0YfA6NWy8jPU72UB-34" target="eEYf0YfA6NWy8jPU72UB-28">
          <mxGeometry relative="1" as="geometry">
            <Array as="points">
              <mxPoint x="370" y="710" />
            </Array>
          </mxGeometry>
        </mxCell>
        <mxCell id="eEYf0YfA6NWy8jPU72UB-34" value="GET pdf" style="rounded=0;whiteSpace=wrap;html=1;fillColor=#dae8fc;strokeColor=#6c8ebf;" vertex="1" parent="1">
          <mxGeometry x="370" y="655" width="120" height="60" as="geometry" />
        </mxCell>
        <mxCell id="eEYf0YfA6NWy8jPU72UB-58" style="edgeStyle=orthogonalEdgeStyle;rounded=0;orthogonalLoop=1;jettySize=auto;html=1;exitX=0;exitY=0.5;exitDx=0;exitDy=0;entryX=1;entryY=0.5;entryDx=0;entryDy=0;startArrow=classic;startFill=1;" edge="1" parent="1" source="eEYf0YfA6NWy8jPU72UB-35" target="eEYf0YfA6NWy8jPU72UB-28">
          <mxGeometry relative="1" as="geometry" />
        </mxCell>
        <mxCell id="eEYf0YfA6NWy8jPU72UB-59" style="edgeStyle=orthogonalEdgeStyle;rounded=0;orthogonalLoop=1;jettySize=auto;html=1;exitX=1;exitY=0.5;exitDx=0;exitDy=0;entryX=1;entryY=0.5;entryDx=0;entryDy=0;" edge="1" parent="1" source="eEYf0YfA6NWy8jPU72UB-35" target="eEYf0YfA6NWy8jPU72UB-1">
          <mxGeometry relative="1" as="geometry" />
        </mxCell>
        <mxCell id="eEYf0YfA6NWy8jPU72UB-35" value="POST run &quot;Download-Manager&quot;" style="rounded=0;whiteSpace=wrap;html=1;fillColor=#dae8fc;strokeColor=#6c8ebf;" vertex="1" parent="1">
          <mxGeometry x="370" y="730" width="120" height="60" as="geometry" />
        </mxCell>
        <mxCell id="eEYf0YfA6NWy8jPU72UB-36" value="AUTH" style="rounded=0;whiteSpace=wrap;html=1;fillColor=#dae8fc;strokeColor=#6c8ebf;" vertex="1" parent="1">
          <mxGeometry x="220" y="740" width="120" height="30" as="geometry" />
        </mxCell>
        <mxCell id="eEYf0YfA6NWy8jPU72UB-37" value="Local User" style="shape=umlActor;verticalLabelPosition=bottom;verticalAlign=top;html=1;outlineConnect=0;fillColor=#f8cecc;strokeColor=#b85450;" vertex="1" parent="1">
          <mxGeometry x="40" y="490" width="50" height="95" as="geometry" />
        </mxCell>
        <mxCell id="eEYf0YfA6NWy8jPU72UB-40" style="edgeStyle=orthogonalEdgeStyle;rounded=0;orthogonalLoop=1;jettySize=auto;html=1;exitX=0.5;exitY=1;exitDx=0;exitDy=0;exitPerimeter=0;entryX=0.5;entryY=0;entryDx=0;entryDy=0;entryPerimeter=0;" edge="1" parent="1" source="eEYf0YfA6NWy8jPU72UB-2" target="eEYf0YfA6NWy8jPU72UB-37">
          <mxGeometry relative="1" as="geometry" />
        </mxCell>
        <mxCell id="eEYf0YfA6NWy8jPU72UB-41" value="Download" style="edgeLabel;html=1;align=center;verticalAlign=middle;resizable=0;points=[];" vertex="1" connectable="0" parent="eEYf0YfA6NWy8jPU72UB-40">
          <mxGeometry x="-0.0105" relative="1" as="geometry">
            <mxPoint as="offset" />
          </mxGeometry>
        </mxCell>
        <mxCell id="eEYf0YfA6NWy8jPU72UB-60" style="edgeStyle=orthogonalEdgeStyle;rounded=0;orthogonalLoop=1;jettySize=auto;html=1;exitX=0.5;exitY=1;exitDx=0;exitDy=0;entryX=0.5;entryY=0;entryDx=0;entryDy=0;entryPerimeter=0;startArrow=classic;startFill=1;" edge="1" parent="1" source="eEYf0YfA6NWy8jPU72UB-36" target="eEYf0YfA6NWy8jPU72UB-27">
          <mxGeometry relative="1" as="geometry" />
        </mxCell>
        <mxCell id="eEYf0YfA6NWy8jPU72UB-62" style="edgeStyle=orthogonalEdgeStyle;rounded=0;orthogonalLoop=1;jettySize=auto;html=1;exitX=0;exitY=0.5;exitDx=0;exitDy=0;entryX=1;entryY=0.5;entryDx=0;entryDy=0;" edge="1" parent="1" source="eEYf0YfA6NWy8jPU72UB-61" target="eEYf0YfA6NWy8jPU72UB-28">
          <mxGeometry relative="1" as="geometry">
            <Array as="points">
              <mxPoint x="350" y="830" />
              <mxPoint x="350" y="710" />
            </Array>
          </mxGeometry>
        </mxCell>
        <mxCell id="eEYf0YfA6NWy8jPU72UB-61" value="POST register user" style="rounded=0;whiteSpace=wrap;html=1;fillColor=#dae8fc;strokeColor=#6c8ebf;" vertex="1" parent="1">
          <mxGeometry x="370" y="800" width="120" height="60" as="geometry" />
        </mxCell>
        <mxCell id="eEYf0YfA6NWy8jPU72UB-63" value="&lt;font style=&quot;font-size: 10px;&quot;&gt;list.csv&lt;/font&gt;" style="shape=card;whiteSpace=wrap;html=1;fillColor=#f8cecc;strokeColor=#b85450;" vertex="1" parent="1">
          <mxGeometry x="180" y="475" width="80" height="100" as="geometry" />
        </mxCell>
        <mxCell id="eEYf0YfA6NWy8jPU72UB-64" style="edgeStyle=orthogonalEdgeStyle;rounded=0;orthogonalLoop=1;jettySize=auto;html=1;exitX=0;exitY=0.5;exitDx=0;exitDy=0;exitPerimeter=0;entryX=1;entryY=0.5;entryDx=0;entryDy=0;entryPerimeter=0;" edge="1" parent="1" source="eEYf0YfA6NWy8jPU72UB-25" target="eEYf0YfA6NWy8jPU72UB-63">
          <mxGeometry relative="1" as="geometry" />
        </mxCell>
        <mxCell id="eEYf0YfA6NWy8jPU72UB-65" style="edgeStyle=orthogonalEdgeStyle;rounded=0;orthogonalLoop=1;jettySize=auto;html=1;exitX=0;exitY=0.5;exitDx=0;exitDy=0;entryX=1;entryY=0.5;entryDx=0;entryDy=0;entryPerimeter=0;" edge="1" parent="1" source="eEYf0YfA6NWy8jPU72UB-61" target="eEYf0YfA6NWy8jPU72UB-27">
          <mxGeometry relative="1" as="geometry">
            <Array as="points">
              <mxPoint x="350" y="830" />
              <mxPoint x="350" y="875" />
            </Array>
          </mxGeometry>
        </mxCell>
        <mxCell id="eEYf0YfA6NWy8jPU72UB-66" value="Front-end" style="rounded=0;whiteSpace=wrap;html=1;fillColor=#d5e8d4;strokeColor=#82b366;" vertex="1" parent="1">
          <mxGeometry x="140" y="707.5" width="40" height="90" as="geometry" />
        </mxCell>
      </root>
    </mxGraphModel>
  </diagram>
</mxfile>
